<svg width="134" height="50" viewBox="0 0 134 50" fill="none" xmlns="http://www.w3.org/2000/svg">
<path id="Union" fill-rule="evenodd" clip-rule="evenodd" d="M91.8432 3.45169C92.2245 3.20374 92.5238 2.94636 92.4419 2.60427C92.4319 2.50879 92.4587 2.41323 92.5209 2.32332C92.583 2.2334 92.6791 2.15098 92.8034 2.08099C94.2794 1.09304 96.3265 0.533126 98.4475 0.0328693C98.823 -0.055042 99.0926 0.0422882 99.2584 0.219157C100.069 1.08048 100.469 1.96483 100.293 2.94859C100.214 3.38577 100.063 3.81224 99.9119 4.23874L99.9118 4.23891L99.9118 4.23908L99.9117 4.23923L99.9117 4.23937L99.9117 4.23951L99.9116 4.23964L99.9116 4.23977L99.9115 4.23989L99.9115 4.24002L99.9114 4.24014L99.9114 4.24027L99.9113 4.24039L99.9113 4.24052L99.9112 4.24064L99.9112 4.24076L99.9111 4.2409L99.9111 4.24103L99.9111 4.24117L99.911 4.2413L99.911 4.24144L99.9109 4.24157L99.9109 4.24171L99.9108 4.24184L99.9108 4.24197L99.9107 4.24208C99.8165 4.50774 99.7223 4.77342 99.6459 5.04172C99.5808 5.28554 99.4437 5.50182 99.0694 5.66338L99.072 5.66757C99.0261 5.74945 98.9589 5.82764 98.8722 5.8999C98.1792 6.36039 98.2012 6.40644 99.2577 6.49331C99.763 6.53517 99.9807 6.67331 100.057 6.936C100.244 7.55556 100.598 7.66859 101.748 7.50638L103.647 7.24402C104.458 6.98826 105.189 7.20231 105.839 7.41532C105.966 7.46575 106.121 7.49304 106.28 7.49304C106.439 7.49304 106.594 7.46575 106.721 7.41532L106.881 7.36666C107.569 7.15695 108.258 6.9469 108.918 6.70889C110.164 6.25155 111.852 6.12282 113.132 6.80308C113.845 7.18089 114.612 7.61731 114.972 8.18873C115.331 8.76015 115.171 9.28658 114.92 9.8109C114.901 9.84867 114.883 9.88659 114.864 9.92458C114.643 10.3814 114.416 10.8502 113.785 11.229L113.76 11.244C113.574 11.3538 113.219 11.5624 113.913 11.6413C114.055 11.657 114.225 11.7219 114.113 11.8339C113.841 12.1343 113.961 12.3488 114.48 12.5665C114.704 12.6633 114.558 12.7196 114.398 12.7807C114.262 12.8332 114.116 12.8893 114.187 12.9778C114.206 13.0353 114.211 13.0936 114.216 13.1515C114.233 13.3374 114.249 13.519 114.718 13.6539C114.97 13.7271 115.004 14.0814 115.028 14.3304L115.028 14.331C115.118 15.2844 114.99 16.2148 114.305 17.1149C114.153 17.3148 114.305 17.4697 114.748 17.4707C114.993 17.4707 115.242 17.4596 115.49 17.4484C115.925 17.4289 116.359 17.4095 116.771 17.4508C117.154 17.4891 117.523 17.4299 117.888 17.3712C118.391 17.2903 118.889 17.2103 119.41 17.388L119.416 17.3904C120.191 17.1685 121.027 17.1602 121.863 17.152C122.296 17.1477 122.729 17.1435 123.153 17.1096C124.291 17.02 125.444 16.9751 126.596 16.9302C127.207 16.9064 127.817 16.8826 128.426 16.8522C131.483 16.7004 133.606 17.6245 133.78 19.2917C133.795 19.5844 133.851 19.8762 133.948 20.1645C134.257 20.9547 133.149 21.9835 131.689 22.2577C131.337 22.3248 130.984 22.3957 130.631 22.4667L130.631 22.4668L130.63 22.467C129.383 22.7179 128.126 22.9707 126.83 23.0677C126.332 23.1044 125.871 23.2071 125.413 23.3092C124.709 23.4662 124.012 23.6214 123.201 23.5313L123.2 23.5291L123.198 23.5303C122.543 23.702 121.829 23.7518 121.12 23.8012C120.926 23.8148 120.732 23.8283 120.54 23.8443C120.015 23.8872 119.717 23.9604 119.761 24.2315C119.796 24.4518 120.049 24.4171 120.287 24.3846C120.373 24.3727 120.457 24.3612 120.528 24.3623L120.69 24.3649C121.74 24.3813 122.79 24.3978 123.8 24.5786L123.8 24.5779C125.143 24.4997 126.425 24.6465 127.7 24.7926C128.131 24.8419 128.561 24.8912 128.992 24.9317C130.7 25.0918 131.429 25.6506 131.223 26.6061C131.023 27.4957 131.515 28.2618 132.308 29.0279C133.065 29.7605 133.396 30.5831 133.492 31.4057C133.566 32.0462 132.939 32.6511 132.126 33.0802C131.499 33.4078 131.503 33.6694 131.637 34.0315C131.671 34.127 131.713 34.2223 131.756 34.3175C131.927 34.7043 132.098 35.0911 131.772 35.4967C131.561 35.7583 131.287 36.0064 130.804 36.1246C129.855 36.3517 129.316 36.7034 129.186 37.2507C128.975 38.1308 127.693 38.5939 126.494 39.0266C126.376 39.0694 126.258 39.1119 126.142 39.1544C124.842 39.639 123.365 39.9788 121.804 40.1529L121.804 40.1502L121.802 40.1518C121.437 40.1887 121.076 40.2352 120.714 40.2816L120.714 40.2816C119.938 40.3813 119.162 40.481 118.351 40.4867C117.624 40.4867 117.3 40.6667 117.388 41.0749C117.403 41.1418 117.421 41.2084 117.439 41.2751C117.507 41.5214 117.575 41.7688 117.452 42.0356C117.34 42.2763 117.183 42.4605 116.821 42.5746C116.665 42.6224 116.533 42.6885 116.434 42.7677C116.334 42.8468 116.272 42.9369 116.25 43.0309C115.934 44.1957 114.61 44.9995 112.767 45.5426C110.68 46.1622 108.535 46.742 106.136 46.9859C105.76 47.0396 105.392 47.1096 105.038 47.1952L105.034 47.1919L105.032 47.2046C104.884 47.4861 104.505 47.5887 103.99 47.686C102.407 47.9869 100.792 48.2273 99.1762 48.4677L99.1758 48.4678L99.1754 48.4679L99.1749 48.4679L99.1745 48.468L99.1741 48.4681L99.1736 48.4681L99.1732 48.4682L99.1728 48.4683L99.1723 48.4683L99.1719 48.4684L99.1715 48.4685L99.171 48.4685L99.1706 48.4686L99.1702 48.4687L99.1697 48.4687L99.1693 48.4688L99.1688 48.4689L99.1684 48.469L99.168 48.469L99.1675 48.4691L99.1671 48.4692L99.1667 48.4692L99.1662 48.4693L99.1658 48.4694L99.1654 48.4694L99.1649 48.4695L99.1645 48.4696L99.1641 48.4696L99.1636 48.4697L99.1632 48.4698L99.1628 48.4698L99.1623 48.4699L99.1619 48.47L99.1615 48.4701L99.161 48.4701L99.1606 48.4702L99.1601 48.4703L99.1597 48.4703L99.1593 48.4704L99.1588 48.4705L99.1584 48.4705L99.158 48.4706L99.1575 48.4707L99.1571 48.4707L99.1567 48.4708L99.1562 48.4709L99.1558 48.4709L99.1554 48.471L99.1549 48.4711L99.1545 48.4711L99.1541 48.4712L99.1536 48.4713L99.1532 48.4714L99.1528 48.4714L99.1523 48.4715L99.1519 48.4716L99.1515 48.4716L99.151 48.4717L99.1506 48.4718L99.1501 48.4718L99.1497 48.4719L99.1493 48.472L99.1488 48.472L99.1484 48.4721L99.148 48.4722L99.1475 48.4722L99.1471 48.4723L99.1467 48.4724L99.1462 48.4725L99.1458 48.4725L99.1454 48.4726L99.1449 48.4727L99.1445 48.4727L99.1441 48.4728L99.1436 48.4729L99.1432 48.4729L99.1428 48.473L99.1423 48.4731L99.1419 48.4731L99.1414 48.4732L99.141 48.4733L99.1406 48.4733L99.1401 48.4734L99.1397 48.4735L99.1393 48.4736L99.1388 48.4736L99.1384 48.4737L99.138 48.4738L99.1375 48.4738L99.1371 48.4739L99.1367 48.474L99.1362 48.474L99.1358 48.4741L99.1354 48.4742L99.1349 48.4742L99.1345 48.4743L99.1341 48.4744L99.1336 48.4744L99.1332 48.4745C98.3039 48.5978 97.4747 48.7211 96.6504 48.8529L96.6456 48.8561C96.1483 48.9984 95.647 49.1177 95.0479 49.0654L95.0713 49.0518L95.0498 49.0559C93.7068 49.285 92.32 49.3962 90.938 49.5071L90.9378 49.5071L90.9376 49.5071L90.9375 49.5071C90.5767 49.5361 90.2163 49.565 89.857 49.596C89.6667 49.612 89.4754 49.6213 89.2799 49.6308C89.2066 49.6344 89.1328 49.638 89.0581 49.642L89.0565 49.6408L89.0563 49.641C87.8767 49.7289 86.6831 49.7529 85.4942 49.7128L85.4652 49.7257C84.7924 49.8427 84.1244 49.792 83.4519 49.7409L83.4516 49.7409C83.2578 49.7261 83.0636 49.7114 82.8688 49.7006C82.8682 49.6952 82.8677 49.6899 82.8673 49.6846C82.4688 49.6291 82.0588 49.6234 81.6487 49.6178H81.6486C81.1708 49.6111 80.6929 49.6045 80.233 49.5191L80.2209 49.5217C77.7044 49.5656 75.1899 49.6263 72.6914 49.7959L72.6997 49.7835L72.6912 49.7906C72.6496 49.7862 72.6063 49.7788 72.563 49.7714L72.5629 49.7713C72.4733 49.756 72.3838 49.7406 72.3098 49.7519C70.1202 50.0882 67.8942 50.0102 65.6815 49.9328H65.6814L65.6804 49.9327L65.6793 49.9327L65.6783 49.9327L65.6772 49.9326L65.6762 49.9326L65.6751 49.9326L65.6741 49.9325L65.673 49.9325L65.672 49.9325L65.6709 49.9324L65.6699 49.9324L65.6688 49.9324L65.6678 49.9323L65.6667 49.9323L65.6657 49.9323L65.6646 49.9322C65.2935 49.9192 64.9227 49.9062 64.5526 49.8953C62.3317 49.8304 60.1787 49.5112 58.1096 49.0675L58.1033 49.0666C57.2799 49.0864 56.4943 48.9861 55.7083 48.8857H55.7083H55.7082H55.7082H55.7081H55.7081H55.7081H55.708H55.708H55.7079H55.7079H55.7078H55.7078H55.7077H55.7077H55.7076H55.7076H55.7076H55.7075H55.7075H55.7074H55.7074H55.7073H55.7073H55.7072H55.7072H55.7071H55.7071H55.7071H55.707H55.707H55.7069H55.7069H55.7068H55.7068H55.7067H55.7067H55.7066H55.7066H55.7065H55.7065H55.7065H55.7064H55.7064H55.7063H55.7063H55.7062H55.7062H55.7061H55.7061H55.706H55.706H55.706H55.7059H55.7059H55.7058H55.7058H55.7057H55.7057H55.7056H55.7056H55.7055H55.7055H55.7054H55.7054H55.7054H55.7053H55.7053H55.7052H55.7052H55.7051H55.7051H55.705H55.705H55.7049H55.7049H55.7049H55.7048H55.7048H55.7047H55.7047H55.7046H55.7046H55.7045H55.7045H55.7044H55.7044H55.7043H55.7043H55.7043H55.7042H55.7042H55.7041H55.7041H55.704C55.2396 48.8266 54.7751 48.7674 54.3027 48.7328L54.317 48.7388C54.22 48.7377 54.1226 48.7432 54.0263 48.7487C53.7718 48.7632 53.5256 48.7772 53.3184 48.6656L53.3219 48.6658L53.3014 48.6593L53.2841 48.6586C52.2752 48.618 51.2649 48.5774 50.3295 48.3453C50.2838 48.3342 50.2324 48.3248 50.181 48.3155C50.0639 48.2942 49.9462 48.2728 49.8921 48.2292C49.3282 47.7819 48.4662 47.603 47.6047 47.4243C47.2184 47.3441 46.8321 47.2639 46.4729 47.1596C45.5819 46.899 44.6485 46.6906 43.7165 46.4825C42.9939 46.3211 42.2721 46.16 41.5718 45.9749C40.9487 45.8105 40.3985 45.5703 39.8482 45.3299C39.5995 45.2213 39.3507 45.1126 39.0952 45.011L39.0949 45.0093C37.553 44.8637 36.0881 44.5868 34.6237 44.31C33.9739 44.1871 33.3241 44.0643 32.6678 43.9529C32.0681 43.851 31.6806 43.611 31.2623 43.3521C31.0454 43.2178 30.8201 43.0783 30.5527 42.9503C30.9897 42.8988 31.4435 42.9005 31.8789 42.9556C33.2044 43.0746 34.5396 43.1792 35.8765 43.284L35.881 43.2843C36.3745 43.323 36.8682 43.3617 37.3619 43.4011C37.7375 43.3794 38.111 43.4183 38.4894 43.4577C39.021 43.513 39.5621 43.5693 40.1318 43.46C39.963 43.3283 39.7375 43.3108 39.5241 43.2943H39.5241C39.3825 43.2834 39.2463 43.2729 39.1356 43.2297C38.4938 43.2051 37.9649 43.0401 37.4371 42.8754L37.437 42.8754C37.1445 42.7842 36.8523 42.693 36.5414 42.6259L36.5402 42.6148L36.5276 42.6248C35.9832 42.6471 35.6069 42.4906 35.23 42.3339L35.23 42.3339C35.076 42.2699 34.9218 42.2058 34.7561 42.1539L34.7573 42.1437L34.7516 42.1476C33.5299 41.8517 32.2625 41.6109 30.9629 41.4276L30.9629 41.4275L30.7856 41.4108L30.7855 41.4108C30.2204 41.3581 29.6539 41.3052 29.1659 41.1366L29.1552 41.1306C28.7249 41.182 28.3825 41.1309 28.1649 40.9125C25.5818 40.7939 23.5613 40.0877 21.6007 39.1586C22.0221 39.1586 22.429 39.1812 22.8313 39.2035L22.8314 39.2035C23.4968 39.2405 24.1496 39.2767 24.8342 39.2089C24.7866 39.1719 24.7395 39.135 24.6924 39.0981C24.054 38.5976 23.438 38.1148 22.1619 38.0241L22.1584 38.0126C20.2674 37.8918 18.4279 37.6071 16.7151 37.1701C16.155 37.0348 15.6758 36.8221 15.329 36.5548C15.0837 36.3679 14.6315 36.2542 14.182 36.1411C14.0022 36.0959 13.8229 36.0508 13.6574 36.0011C13.2958 35.893 12.9188 35.795 12.5472 35.6992L12.5191 35.7112C11.7183 35.5079 10.8974 35.3274 10.0766 35.1468C8.78472 34.8627 7.49332 34.5787 6.28182 34.2063C6.15087 34.1659 6.02616 34.12 5.90045 34.0736L5.89979 34.0734L5.89959 34.0733C5.73223 34.0116 5.56309 33.9493 5.37509 33.8986C4.72 33.7238 4.0769 33.5522 3.77732 33.1346C3.61937 32.9192 3.24164 32.7876 2.87799 32.6608C2.69905 32.5985 2.52352 32.5373 2.37928 32.4679C2.31975 32.3432 2.53932 32.3457 2.75519 32.3482C3.0391 32.3515 3.31662 32.3547 2.94449 32.0681C3.1368 31.9905 3.3749 31.9505 3.61755 31.9551C4.18458 32.0054 4.75696 32.0317 5.32984 32.0581H5.32987H5.3299H5.32993H5.32996C6.0686 32.092 6.80808 32.126 7.53807 32.2115C8.01939 32.2659 8.77633 32.334 8.90615 32.0085C9.01391 31.7383 8.5616 31.6225 8.11121 31.5071C8.019 31.4835 7.92687 31.4599 7.83964 31.435C7.67714 31.3886 7.51143 31.3439 7.34521 31.2992L7.34503 31.2991L7.3448 31.2991L7.34457 31.299L7.34437 31.2989C6.62217 31.1044 5.89046 30.9074 5.37109 30.5527C5.28934 30.5009 5.17804 30.4642 5.05354 30.448C4.07688 30.3255 3.35984 29.9979 2.64325 29.6706C2.13625 29.439 1.62948 29.2075 1.03116 29.0488C0.364866 28.8722 0.404201 28.5744 0.44176 28.2902C0.451824 28.214 0.46176 28.1388 0.457962 28.0671C0.45019 27.8993 0.742457 27.9198 0.99672 27.9376H0.996756H0.996796L0.99684 27.9376C1.06922 27.9427 1.13852 27.9476 1.19693 27.9478C2.50246 27.9664 3.80174 28.0494 5.07751 28.1958C5.56083 28.2461 6.00021 28.2639 6.14201 28.0242C6.24726 27.8453 5.94316 27.8064 5.71386 27.7771C5.60379 27.763 5.51095 27.7511 5.48893 27.727C5.29636 27.5115 4.93576 27.3776 4.58302 27.2466C4.20407 27.1058 3.83419 26.9684 3.69144 26.7369L3.67301 26.7076C3.48253 26.405 3.21286 25.9765 4.33254 25.8945C4.39141 25.8818 4.44319 25.8616 4.48301 25.8356C4.52284 25.8096 4.54941 25.7787 4.56022 25.7458C4.56022 25.6307 4.39046 25.5637 4.18675 25.5365C3.70572 25.4751 3.24423 25.3774 2.81666 25.2466C2.0038 24.9923 1.88197 24.6564 2.49112 24.2848C3.40584 23.7281 3.30598 23.502 1.95587 23.2854C1.59008 23.2212 1.23907 23.1359 0.909333 23.0311C-0.175151 22.7108 -0.316956 22.445 0.631718 22.0441L0.768328 21.9862C1.5379 21.6591 2.35223 21.313 3.54564 21.4602C3.57825 21.4641 3.61938 21.4704 3.66641 21.4776L3.66647 21.4776C4.04001 21.5344 4.78574 21.6479 4.59417 21.1274C4.58563 21.1046 4.61878 21.0837 4.65156 21.063C4.70305 21.0306 4.75361 20.9987 4.64012 20.961C4.60486 20.95 4.56581 20.9428 4.52523 20.9398C4.48464 20.9367 4.44331 20.9379 4.40361 20.9433C4.3639 20.9486 4.32661 20.958 4.29385 20.9709C4.26109 20.9838 4.23352 21 4.21271 21.0185L4.20149 21.0259C4.00366 21.1567 3.75741 21.3195 3.44578 21.1295C3.38789 21.0949 3.27965 21.0721 3.16855 21.0487C2.89636 20.9913 2.60696 20.9304 2.9984 20.6836C3.09627 20.6219 2.91053 20.4879 2.73877 20.5329C2.24546 20.6648 1.74017 20.4754 1.7182 20.356C1.69623 20.1467 1.73218 19.8725 2.11764 19.6936C2.45916 19.5314 2.7907 19.3922 3.29999 19.3555C5.44299 19.2027 7.586 19.2404 9.731 19.3001C9.7869 19.3001 9.842 19.3073 9.89768 19.3146C9.99317 19.3272 10.0904 19.3399 10.1964 19.3168C10.3085 19.2959 10.4232 19.2791 10.5399 19.2666C10.5097 19.1696 10.3849 19.1642 10.2626 19.1589C10.1499 19.1541 10.0392 19.1493 10.0066 19.073C10.2065 19.045 10.4502 19.0502 10.6896 19.0553C11.1487 19.0651 11.5916 19.0746 11.6783 18.849C11.7695 18.6115 11.3253 18.5794 10.8888 18.5478H10.8888C10.6944 18.5338 10.5015 18.5199 10.3581 18.4879C9.28502 18.25 8.14193 18.1323 6.99843 18.0145L6.99837 18.0145L6.9982 18.0145L6.99804 18.0145L6.99788 18.0144L6.99772 18.0144L6.99756 18.0144L6.9974 18.0144L6.99724 18.0144L6.99708 18.0144L6.99692 18.0143L6.99677 18.0143L6.99661 18.0143L6.99645 18.0143L6.99629 18.0143L6.99613 18.0143L6.99597 18.0142L6.99581 18.0142L6.99565 18.0142L6.99551 18.0142L6.99536 18.0142L6.99523 18.0142C6.63089 17.9766 6.2665 17.9391 5.90434 17.8977C5.70462 17.8757 5.52488 17.8495 5.34114 17.8181C4.34253 17.6496 4.23468 17.5335 4.85182 17.1169C5.00164 17.0158 5.16511 16.9199 5.32889 16.8238L5.3289 16.8238L5.32893 16.8237L5.32897 16.8237C5.83981 16.5239 6.35365 16.2224 6.46556 15.7564C6.56542 15.3441 7.31238 15.162 8.0813 15.0364C8.70273 14.9343 9.02168 14.6707 9.34451 14.4039C9.56121 14.2249 9.77965 14.0444 10.0925 13.9103C12.0617 13.0667 14.1229 12.3122 16.5075 11.8245C16.5914 11.8077 16.6653 11.7784 16.7312 11.6664C16.5191 11.6743 16.3066 11.6861 16.0941 11.698L16.0941 11.698C15.6304 11.7238 15.1669 11.7495 14.708 11.7345C13.8195 11.7062 12.9384 11.7333 12.0557 11.7605H12.0557H12.0557H12.0556H12.0556H12.0556H12.0555H12.0555H12.0554H12.0554H12.0554H12.0553H12.0553H12.0553H12.0552H12.0552H12.0551H12.0551H12.0551H12.055H12.055H12.055H12.0549H12.0549H12.0548H12.0548H12.0548H12.0547H12.0547H12.0547H12.0546H12.0546H12.0546H12.0545H12.0545H12.0545H12.0544H12.0544H12.0543H12.0543H12.0543H12.0542H12.0542H12.0542H12.0541H12.0541H12.0541H12.054H12.054H12.054H12.0539H12.0539H12.0539H12.0538H12.0538H12.0538H12.0537H12.0537H12.0537H12.0536H12.0536H12.0536H12.0536H12.0535H12.0535H12.0535H12.0534H12.0534H12.0534H12.0533H12.0533H12.0533H12.0532H12.0532H12.0532H12.0532H12.0531H12.0531H12.0531H12.0531H12.053H12.053H12.053H12.0529H12.0529H12.0529H12.0529H12.0528H12.0528H12.0528H12.0528H12.0527H12.0527H12.0527H12.0527H12.0526H12.0526H12.0526H12.0526C11.3371 11.7826 10.6207 11.8048 9.89876 11.7973C9.58192 11.7939 9.37552 11.6912 9.15239 11.5801C8.89449 11.4518 8.61424 11.3123 8.11525 11.3022C10.0825 10.7517 11.9519 10.4325 13.8393 10.151C14.2905 10.0834 14.7463 10.0183 15.2025 9.9532L15.2026 9.95319L15.2027 9.95318L15.2028 9.95317L15.2028 9.95315L15.2029 9.95314L15.203 9.95313L15.2031 9.95312L15.2032 9.95311L15.2032 9.9531L15.2033 9.95308L15.2034 9.95307L15.2035 9.95306L15.2036 9.95305L15.2036 9.95304L15.2037 9.95303L15.2038 9.95302L15.2039 9.953L15.204 9.95299L15.204 9.95298L15.2041 9.95297L15.2042 9.95296L15.2043 9.95295L15.2044 9.95294L15.2044 9.95292L15.2045 9.95291L15.2046 9.9529L15.2047 9.95289L15.2048 9.95288L15.2048 9.95287L15.2049 9.95286L15.205 9.95284L15.2051 9.95283L15.2052 9.95282L15.2052 9.95281L15.2053 9.9528L15.2054 9.95279L15.2055 9.95278L15.2056 9.95276L15.2056 9.95275L15.2057 9.95274L15.2058 9.95273L15.2059 9.95272L15.206 9.95271L15.206 9.9527L15.2061 9.95268L15.2062 9.95267L15.2063 9.95266L15.2064 9.95265L15.2064 9.95264L15.2065 9.95263L15.2066 9.95262L15.2067 9.9526L15.2068 9.95259L15.2068 9.95258L15.2069 9.95257L15.207 9.95256L15.2071 9.95255L15.2072 9.95254L15.2072 9.95252L15.2073 9.95251L15.2074 9.9525L15.2075 9.95249L15.2076 9.95248L15.2076 9.95247L15.2077 9.95246L15.2078 9.95244L15.2079 9.95243L15.208 9.95242L15.208 9.95241L15.2081 9.9524L15.2082 9.95239L15.2083 9.95238L15.2084 9.95236L15.2084 9.95235L15.2085 9.95234L15.2086 9.95233L15.2087 9.95232L15.2088 9.95231L15.2088 9.9523L15.2089 9.95228L15.209 9.95227L15.2091 9.95226L15.2092 9.95225L15.2092 9.95224L15.2093 9.95223L15.2094 9.95222L15.2095 9.9522L15.2096 9.95219L15.2096 9.95218L15.2097 9.95217L15.2098 9.95216L15.2099 9.95215L15.21 9.95214L15.21 9.95212L15.2101 9.95211L15.2102 9.9521L15.2103 9.95209L15.2104 9.95207L15.2107 9.95203C15.7613 9.87345 16.3124 9.79479 16.857 9.71146C17.4526 9.62046 18.065 9.56202 18.677 9.50362C19.7683 9.39947 20.8584 9.29545 21.8501 9.00712C22.3993 8.84804 22.8626 8.20964 22.571 7.92497C22.3713 7.72194 22.0078 7.70624 21.6224 7.78787C20.8038 7.9794 19.879 8.0055 19.026 7.86113C18.7105 7.80569 18.4088 7.85467 18.0963 7.90542C17.748 7.96196 17.3863 8.0207 16.9769 7.93962C16.8333 7.91698 16.7002 7.87909 16.5857 7.82832C16.4713 7.77754 16.3781 7.71497 16.3118 7.64449C16.18 7.50425 16.4516 7.39332 16.6673 7.32006C17.034 7.19622 17.3991 7.07136 17.7641 6.94654C19.4627 6.36569 21.1589 5.78569 22.9984 5.31275C25.1574 4.75703 27.3464 4.27456 29.6791 3.98152C30.8655 3.83403 32.0738 3.7598 33.2815 3.68562C33.7876 3.65452 34.2937 3.62344 34.798 3.58697C35.218 3.55597 35.6422 3.54419 36.0667 3.53241C36.7884 3.51238 37.5109 3.49233 38.2152 3.37766C38.4996 3.33262 38.8061 3.35025 39.1164 3.3681C39.318 3.3797 39.5212 3.39139 39.7211 3.38603C40.9482 3.36001 42.1855 3.39208 43.4207 3.42409C43.9243 3.43715 44.4277 3.45019 44.9298 3.45929L44.9283 3.46709L44.9337 3.46455C46.9622 3.46221 48.989 3.52863 51.0012 3.6634C51.3696 3.68738 51.7382 3.71029 52.1067 3.73319L52.1069 3.73321C54.3591 3.87318 56.6065 4.01285 58.7743 4.39599C59.3315 4.49437 59.8228 4.57495 60.0285 4.12703C60.1082 3.95331 60.4295 3.80285 60.7344 3.66001L60.8274 3.6163C61.1717 3.44834 61.5573 3.31189 61.9438 3.17513C62.4025 3.01279 62.8625 2.85001 63.256 2.63358C64.0549 2.19717 65.3291 2.40334 65.7246 2.98209C65.9693 3.34247 66.4764 3.578 66.9833 3.81348C67.1757 3.90282 67.368 3.99216 67.546 4.0883C67.8217 4.23587 68.1452 4.13749 68.3449 4.04644C68.542 3.95183 68.3765 3.87018 68.2299 3.7979L68.2298 3.79786C68.1997 3.783 68.1704 3.76854 68.1452 3.75445C68.0726 3.71641 68.0137 3.66685 67.9546 3.61717C67.7928 3.48098 67.6298 3.34386 67.1805 3.44048C67.0507 3.46978 66.861 3.37978 66.9589 3.33582C67.1301 3.25494 67.0949 3.15108 67.06 3.04814C67.0204 2.93133 66.9812 2.8157 67.2445 2.73615C67.8141 2.56522 68.329 2.35278 68.8424 2.14097C69.184 2.00004 69.5249 1.8594 69.8808 1.73145C71.171 1.26887 72.563 1.54097 73.8412 1.8361C74.2363 1.92709 74.6129 2.03796 74.9898 2.14892L74.9899 2.14895C75.7793 2.3813 76.5697 2.61398 77.5321 2.66498C77.9391 2.68676 78.256 2.92181 78.5374 3.1306C78.5806 3.16259 78.6228 3.19395 78.6645 3.22384C78.7585 3.29065 78.8437 3.36113 78.9286 3.43148C79.0566 3.53746 79.1843 3.64315 79.3416 3.73561C80.0565 4.15424 80.3042 4.13959 81.0871 3.73561C81.635 3.43563 82.2332 3.16207 82.8746 2.91825C82.9222 2.90145 82.9698 2.88413 83.0176 2.86672L83.0178 2.86663C83.4732 2.70076 83.9492 2.5274 84.6721 2.73196C84.9609 2.81413 85.3608 2.78877 85.7645 2.76318C85.9778 2.74966 86.1922 2.73607 86.3917 2.73824C87.7171 2.75782 88.8934 2.97909 90.0757 3.20147C90.5361 3.28806 90.9973 3.37482 91.4686 3.4499C91.5928 3.45945 91.7188 3.46004 91.8432 3.45169ZM125.511 8.03384C125.469 8.17198 125.888 8.17721 126.192 8.17721L126.245 8.17341C126.548 8.15177 126.918 8.12536 126.947 7.90197C126.967 7.75545 126.655 7.73975 126.423 7.75022C126.032 7.76801 125.575 7.8151 125.511 8.03384ZM127.947 7.47705C127.863 7.62985 127.595 7.67276 127.347 7.69997C127.307 7.70331 127.265 7.70183 127.226 7.69566C127.187 7.68948 127.151 7.67877 127.121 7.6643C127.09 7.64984 127.067 7.63199 127.051 7.61208C127.036 7.59217 127.029 7.5707 127.032 7.54927C127.058 7.37868 127.321 7.33995 127.601 7.33995C127.773 7.33577 127.925 7.35984 127.947 7.47705ZM108.33 4.7419C108.454 4.71356 108.575 4.68568 108.575 4.59901C108.521 4.509 108.39 4.51005 108.258 4.51737C108.006 4.53307 107.822 4.59901 107.868 4.74238C107.878 4.75843 107.894 4.77296 107.917 4.78458C107.94 4.7962 107.969 4.80452 108 4.80873C108.031 4.81294 108.063 4.8129 108.094 4.80861C108.125 4.80432 108.153 4.79593 108.176 4.78425C108.221 4.76675 108.275 4.75428 108.33 4.7419ZM120.13 6.67948L120.111 6.67551C119.983 6.64828 119.839 6.61766 119.891 6.5247C119.901 6.5043 119.918 6.48512 119.942 6.46827C119.966 6.45141 119.996 6.43723 120.031 6.42652C120.065 6.41581 120.103 6.4088 120.143 6.40589C120.183 6.40299 120.223 6.40424 120.262 6.40957C120.36 6.42422 120.5 6.50272 120.49 6.54458C120.487 6.56567 120.476 6.58621 120.457 6.60492C120.438 6.62363 120.412 6.6401 120.381 6.65328C120.349 6.66646 120.313 6.67607 120.274 6.6815C120.235 6.68693 120.194 6.68806 120.154 6.68482L120.13 6.67948ZM115.968 7.98036C115.987 7.96123 115.998 7.94024 116.001 7.91871C115.997 7.91183 115.993 7.90464 115.989 7.89732C115.96 7.84567 115.928 7.78763 115.781 7.7858C115.701 7.78465 115.622 7.79918 115.56 7.82661C115.499 7.85405 115.459 7.89244 115.448 7.93441C115.441 7.95055 115.441 7.96739 115.448 7.98352C115.455 7.99966 115.47 8.01463 115.491 8.02721C115.512 8.03978 115.538 8.0496 115.567 8.05585C115.596 8.06209 115.628 8.0646 115.66 8.06314C115.7 8.06621 115.742 8.06485 115.782 8.05913C115.821 8.05342 115.858 8.04347 115.89 8.02992C115.922 8.01637 115.949 7.99949 115.968 7.98036ZM117.456 7.97942C117.354 8.03274 117.241 8.07979 117.119 8.11966C116.987 8.14896 116.839 8.11966 116.869 8.03698C116.883 7.99408 117.041 7.95535 117.149 7.93233C117.184 7.92652 117.232 7.93624 117.3 7.95043C117.343 7.95925 117.394 7.9698 117.456 7.97942ZM103.872 1.3046C103.852 1.29521 103.832 1.28608 103.817 1.27724C103.617 1.30968 103.48 1.35468 103.47 1.45306C103.466 1.49178 103.472 1.57341 103.627 1.51795C103.663 1.50626 103.709 1.49918 103.755 1.49201C103.865 1.47479 103.979 1.45703 103.971 1.37352C103.969 1.34941 103.919 1.32632 103.872 1.3046ZM117.584 11.903C117.684 11.879 117.773 11.85 117.853 11.824C118.046 11.7612 118.186 11.7155 118.295 11.7983C118.462 11.9214 118.257 11.9273 118.096 11.9319L118.052 11.9332L118.03 11.9341L118.007 11.9354C117.865 11.9315 117.723 11.9206 117.584 11.903Z" fill="#1A468F" fill-opacity="0.5"/>
</svg>
