<svg width="95" height="60" viewBox="0 0 95 60" fill="none" xmlns="http://www.w3.org/2000/svg">
<path id="Vector" d="M44.9495 21.5681L43.9281 21.059C45.2866 21.2881 46.1854 21.6953 45.261 21.1405C45.0976 21.3645 44.066 21.003 43.0343 20.6314C42.0027 20.2598 40.9914 19.8832 40.8127 20.1224L40.159 19.7559C40.3581 19.8323 40.399 19.817 40.5931 19.8984C39.3367 19.1501 39.4542 19.8679 37.7484 19.1145C37.161 18.8396 36.7729 18.6055 37.207 18.7073L35.8178 18.2797C35.4348 18.1117 35.5625 18.0659 35.9455 18.2339L33.9026 17.4296C33.5809 17.3787 32.8812 17.2158 32.5339 17.1293C32.0232 16.8391 32.8148 17.1904 32.7076 17.0733L31.5329 16.7068C31.1294 16.3861 32.1151 16.661 32.8812 17.0122C32.0487 16.0756 31.8904 16.7475 29.776 15.4851L30.8537 15.8923C30.297 15.312 29.4288 15.0575 28.3307 14.3652C28.5605 14.5892 30.5064 15.8567 29.2449 15.4444C28.7854 15.1811 28.2947 14.9759 27.7842 14.8335C27.8608 14.6554 27.2071 14.4059 26.4104 14.0496L26.5738 13.846C26.3833 13.7742 26.1889 13.7131 25.9916 13.6628L26.63 14.6808C26.5636 14.3092 26.4819 14.2278 26.4002 13.8206C26.3881 13.445 26.419 13.0693 26.4921 12.7007C26.5384 12.5231 26.6071 12.3521 26.6964 12.1916C26.5432 10.4049 26.5227 13.4439 26.2367 11.3568C26.1126 9.92524 25.6825 8.53671 24.9753 7.28456C24.6229 6.30212 25.1949 7.38637 25.103 7.01986L24.817 6.63808C24.6791 6.44974 24.5207 6.27158 24.5207 6.27158C24.4186 6.06797 24.5207 6.1036 24.5514 6.12396C24.107 5.47239 24.3164 6.16977 23.6219 5.18225C23.4125 5.12625 23.1571 4.56122 22.723 3.90966C22.2862 3.20009 21.665 2.62143 20.9253 2.23494C20.6546 1.96515 21.1653 2.23494 21.1295 2.06695L20.5218 1.73099L20.0519 1.51211C19.8392 1.40775 19.619 1.31927 19.3931 1.24741C18.8837 1.06549 18.3564 0.93753 17.8201 0.865633L17.6158 0.774007C17.4643 0.703246 17.3091 0.640382 17.1511 0.585666L16.6812 0.417684C16.5484 0.371871 16.4616 0.351511 16.4616 0.351511C17.483 0.768919 16.0837 0.616207 14.9294 0.779098C15.2818 0.901266 15.578 0.987804 15.7721 1.05907C15.6803 1.05217 15.5881 1.05217 15.4963 1.05907H14.8886L14.2859 1.11506C14.2213 1.11021 14.1564 1.11021 14.0918 1.11506H14.0152C13.8058 1.11506 13.9693 0.982711 14.2553 0.865633C14.1457 0.885155 14.0381 0.914112 13.9335 0.952172C13.2951 0.92163 13.5913 0.748556 14.0561 0.560213C14.2859 0.560213 14.5106 0.65184 14.7251 0.692563C15.1695 0.539853 15.624 0.427864 15.5423 0.270064C15.3331 0.283228 15.1233 0.283228 14.9141 0.270064C15.0367 0.234431 15.1184 0.203888 15.0622 0.173346C14.8657 0.166701 14.6698 0.197809 14.4851 0.264972C14.4851 0.264972 14.0357 -0.00990471 14.0306 0.000275974L13.9284 0.122443C13.4989 0.127409 13.0704 0.164846 12.6465 0.234431C12.3248 0.285335 12.0081 0.37696 11.763 0.427863C11.5178 0.478766 11.3697 0.565304 11.3697 0.565304C11.1655 0.681645 10.9723 0.816245 10.7926 0.967442L10.5219 1.19141L10.3891 1.29831L10.3483 1.32886L10.3227 1.3594L10.2666 1.42048C9.95074 1.74925 9.6605 2.1015 9.39834 2.47418C8.73724 3.40455 8.27802 4.46209 8.05003 5.57929C8.05003 4.88192 7.77425 5.34004 7.53931 5.24333C7.67309 5.04821 7.77961 4.83586 7.85596 4.61213C7.94789 4.35761 8.08578 4.10309 8.20836 3.7824L8.30539 3.55333L8.43307 3.32936C8.525 3.18004 8.61694 3.02733 8.70887 2.87123C8.80968 2.70669 8.92968 2.55462 9.06636 2.41819C9.20426 2.27057 9.34216 2.12804 9.49027 1.9906C8.88251 2.56581 8.92336 2.36728 9.05104 2.17385L8.75483 2.53527C8.59651 2.75415 8.43308 3.0443 8.24411 3.3599C8.10128 3.63901 7.97509 3.92626 7.86618 4.22017C7.80802 4.34925 7.76351 4.48403 7.73339 4.62231C7.65168 4.55613 7.56995 4.6783 7.46781 4.90228C7.41673 5.01426 7.36056 5.14661 7.29928 5.29423C7.23799 5.44185 7.19714 5.61493 7.14607 5.80327C7.26864 5.69637 7.3197 5.76764 7.32481 5.95089C7.32991 6.13414 7.28906 6.42938 7.28396 6.77552L7.2482 7.3151C7.2482 7.50344 7.2482 7.69178 7.2482 7.88013C7.2482 8.06847 7.24821 8.24154 7.27375 8.38916C7.29928 8.53678 7.32482 8.70476 7.35035 8.83711C7.2431 8.91347 7.01838 8.67931 7.06435 7.36091C7.00125 7.66548 6.98403 7.97773 7.01327 8.28736C7.05373 8.53251 7.12405 8.77183 7.22267 9C7.44375 9.48142 7.57527 9.99885 7.61082 10.5271C7.53421 10.2268 7.53421 10.0537 7.44228 9.94681C7.54953 10.298 7.72828 10.8936 7.84064 11.367C7.953 11.8404 8.05003 12.1662 7.92235 11.988L7.81 11.6979C8.06474 12.5015 8.40728 13.2748 8.83143 14.0038C9.05698 14.4067 9.31129 14.7928 9.5924 15.1593C9.85798 15.5207 10.1542 15.8312 10.3993 16.1061L10.7875 15.2C10.384 15.2662 10.047 15.3324 9.7967 15.3986C9.63183 15.437 9.47913 15.5157 9.35236 15.6276C9.41448 15.4347 9.52323 15.2599 9.66902 15.1186L9.11744 15.3986C8.72883 15.6012 8.352 15.8255 7.98875 16.0705C7.6006 16.3454 7.22778 16.6202 6.96731 16.8442L6.54341 17.226C6.62001 17.0326 6.3187 16.9053 6.17059 16.717C6.02248 16.5286 6.02758 16.2945 6.80388 15.872C6.52099 15.9625 6.24311 16.0678 5.9714 16.1876C5.57526 16.3735 5.19885 16.5986 4.84783 16.8595C5.16958 16.7119 5.79266 16.8086 5.40451 17.0478C5.03796 17.1376 4.6819 17.2656 4.34221 17.4296C4.19831 17.496 4.05848 17.5708 3.92343 17.6536C3.74468 17.7656 3.49442 17.8776 3.15224 18.0964C3.57613 17.7961 3.43313 18.5189 2.86624 19.0433C2.90709 18.9109 2.49851 18.7786 2.68237 18.5342C2.61678 18.6208 2.55869 18.7127 2.50873 18.8091L2.15123 19.425C2.02866 19.649 1.93161 19.8882 1.84989 20.0613L1.72221 20.3464C1.83457 20.1275 1.77329 20.0511 1.6354 20.0715C1.43975 20.1235 1.26275 20.2293 1.12468 20.3769C1.22682 20.3158 0.966359 20.6773 0.710999 21.1608C0.593534 21.4052 0.455633 21.6699 0.353489 21.9142C0.251346 22.1585 0.190067 22.3825 0.154317 22.5149C0.275499 22.247 0.410148 21.9853 0.557774 21.731C0.206557 22.4274 0.0833233 23.2161 0.205392 23.986C0.261571 24.2812 0.292214 24.5459 0.348393 24.9022C0.404572 25.2586 0.430095 25.6251 0.542453 26.1646C0.414773 25.9356 -0.136804 25.5029 0.0317337 26.7551C0.118556 26.8722 0.281994 27.0555 0.47096 27.2642C0.570264 27.3899 0.675948 27.5106 0.787604 27.6256L1.17576 28.0226C1.43112 28.3128 1.76819 28.5775 2.06951 28.8829C2.21762 29.0356 2.40148 29.1679 2.58023 29.3207C2.75899 29.4734 2.89688 29.6261 3.09095 29.7737L3.22884 30.1147C3.57935 30.4109 3.94962 30.683 4.33711 30.9292C3.60695 30.6983 2.91763 30.3548 2.29423 29.9111C1.53499 29.3547 0.884186 28.6647 0.373923 27.875C0.441585 28.0738 0.491159 28.2782 0.522036 28.4858C0.544527 28.575 0.575299 28.6619 0.613961 28.7454C0.680355 28.8676 0.787597 29.0509 0.956134 29.3359C1.02253 29.5701 0.894863 29.4377 0.716111 29.2036C0.629289 29.0814 0.532237 28.9389 0.445415 28.8014L0.256451 28.4298C0.256451 28.4298 0.32796 28.6182 0.45564 28.8829C0.583319 29.1476 0.787601 29.4937 0.991889 29.8297C1.19618 30.1657 1.43622 30.4813 1.62008 30.7103L1.94183 31.0819C1.99801 30.9394 2.45255 31.3466 2.92752 31.6826L3.2748 31.932L3.60677 32.1153C3.79574 32.212 3.92853 32.2578 3.93364 32.1916L3.49952 31.9269C3.23395 31.764 2.91731 31.4993 2.58023 31.255C2.24316 31.0107 1.96737 30.6951 1.73755 30.4762L1.39536 30.0842C1.46686 29.9468 1.87033 30.2522 2.49852 30.6798C2.78963 30.919 3.16755 31.1481 3.54549 31.4281C3.73445 31.5706 3.94896 31.6877 4.15324 31.8302L4.45968 32.044L4.78653 32.2374C5.19 32.5988 4.20431 32.441 4.18388 32.5276C4.33199 32.5581 4.78654 32.7974 5.24108 33.001C5.69562 33.2046 6.15527 33.3828 6.26252 33.4286C6.10851 33.4069 5.95649 33.3728 5.80797 33.3268L5.35855 33.1995C5.60374 33.3414 5.86641 33.4509 6.13995 33.5253C6.40042 33.5864 6.65066 33.6271 6.91624 33.6729C7.52138 33.7323 8.12311 33.8224 8.71908 33.9427C8.84676 33.9427 8.99998 33.9987 9.17362 34.0089L9.68434 34.0649C9.83351 34.0822 9.98358 34.0907 10.1338 34.0903C10.2512 34.0903 10.3329 34.0445 10.3432 33.9987C10.1408 33.9822 9.94996 33.8978 9.8018 33.7594C9.67381 33.6497 9.57845 33.5071 9.52602 33.3471C9.47214 33.225 9.46098 33.0883 9.49432 32.9591C9.52766 32.8299 9.60356 32.7156 9.70987 32.6345C9.84906 32.6494 9.98947 32.6494 10.1287 32.6345C10.3534 32.6039 10.6394 32.6039 10.956 32.5378C11.574 32.4207 12.2226 32.1916 12.4882 32.1254C12.8712 32.044 12.7027 32.3036 12.4882 32.5683C12.2737 32.833 12.0388 33.0773 12.3911 33.0366C12.3911 32.9603 12.7333 32.6752 12.8712 32.5632C13.3309 32.3596 12.815 32.8635 13.719 32.2731C13.719 31.9524 15.527 31.1175 14.0203 31.8098C14.6348 31.3712 15.2819 30.9798 15.956 30.6391C15.7568 30.6391 15.8998 30.3947 16.2318 30.074C16.4231 29.8945 16.6318 29.7342 16.8548 29.5955C17.0839 29.4396 17.3308 29.3114 17.5903 29.2138C17.5545 29.2952 17.8048 29.3105 17.9222 29.3156C18.7744 29.0945 19.6515 28.9833 20.532 28.9847C21.3734 28.9928 22.2137 29.0438 23.0499 29.1374C23.2235 29.2188 24.1326 29.4225 23.724 29.4836C24.1037 29.4444 24.487 29.4581 24.8629 29.5243C25.4094 29.7533 25.0774 29.6922 24.7199 29.6363C24.3624 29.5803 23.9589 29.5446 24.3675 29.7533C24.4646 29.6006 25.8997 29.8246 26.773 29.9468C26.5738 29.6413 24.8476 29.4377 23.9947 29.4377C24.0304 29.117 25.5881 28.9847 27.6361 29.3716C29.2449 29.7228 28.2643 29.7686 28.5554 29.7941C31.487 30.7001 31.2214 29.9773 33.5962 30.9241C34.5053 31.4077 33.5196 31.3364 33.6933 31.5451C32.396 31.2448 31.7781 30.8376 30.9098 30.5932L31.9313 31.0005C31.3374 30.9166 30.7549 30.7663 30.1948 30.5525C30.9507 30.975 35.1437 32.0542 37.3449 32.889C37.7688 32.9399 38.4838 33.0773 38.1774 32.889L37.4521 32.7057C36.8444 32.3443 38.8719 32.8788 37.9629 32.5327C39.138 32.6813 40.2948 32.9491 41.4153 33.3318L41.6043 33.6373C41.221 33.413 40.7979 33.2643 40.3581 33.1995C40.9506 33.2606 42.3397 34.1208 43.0445 34.0038L42.1457 33.566C43.3126 33.6923 44.4651 33.9275 45.5879 34.2685C45.1078 33.8816 45.3019 34.2125 44.5307 33.6984C45.1691 34.243 41.4664 32.777 42.5491 33.4744C41.7677 32.9094 41.0782 32.8941 39.9955 32.2934C39.9955 32.38 40.3581 32.5581 39.3622 32.2272C39.2823 32.2324 39.2021 32.2324 39.1222 32.2272H39.0558H39.1069C39.0558 32.2272 39.0609 32.2272 39.1069 32.2272C39.2783 32.2932 39.4398 32.3822 39.587 32.4919C39.0354 32.4919 37.4368 32.0389 36.8699 31.9829C36.2826 31.7691 37.1457 31.9829 36.8393 31.7895L35.9915 31.6877C35.9609 31.4942 34.49 30.9394 35.9251 31.255L34.6636 30.8732C33.8973 30.5358 33.098 30.2782 32.2786 30.1046C31.6912 29.8908 30.7107 29.845 31.2571 29.8653L29.2142 29.3817V29.3359C28.1817 29.0458 27.1351 28.8079 26.0784 28.6233C24.9804 28.4146 23.8466 28.2059 22.6362 27.9412C21.911 27.9412 21.1653 27.9412 19.9294 27.9666L19.674 27.8343C19.199 27.9055 18.4789 27.9768 17.8252 28.1142C17.4932 28.1855 17.1613 28.2873 16.9059 28.3688C16.7351 28.4195 16.5756 28.5025 16.4361 28.6131C15.8538 28.6131 14.7302 29.1527 13.7701 29.8195C12.9795 30.4205 12.1369 30.9502 11.2522 31.4026L11.288 31.6011C11.1807 31.652 11.0735 31.7029 10.9816 31.7386C10.8896 31.7742 10.7875 31.8251 10.6496 31.8709L10.4657 31.9422L10.3227 31.9778L9.99076 32.0745C9.8784 32.0745 9.77116 32.1458 9.64859 32.1713L9.28087 32.2221L8.89272 32.2832H8.47904L8.54032 32.4614C8.40254 32.4694 8.26442 32.4694 8.12664 32.4614C7.97345 32.4471 7.82153 32.4216 7.67211 32.385C7.49922 32.3585 7.32852 32.3194 7.16139 32.268L6.65067 32.0745C6.47314 32.0113 6.30212 31.9311 6.13995 31.8353C5.9663 31.7386 5.78755 31.6571 5.62923 31.5553C5.29726 31.3313 4.93976 31.1328 4.60779 30.8783C4.71837 30.9114 4.82093 30.9669 4.90911 31.0412C5.03169 31.1328 5.18489 31.2244 5.29725 31.3212C4.56181 30.6594 3.76511 30.0689 3.02967 29.3461C2.32358 28.6877 1.83245 27.8328 1.62008 26.8926C1.5343 26.7216 1.46587 26.5426 1.41579 26.3581C1.41579 26.2003 1.39026 26.0577 1.38515 25.9254C1.38995 25.9568 1.39852 25.9876 1.41068 26.017C1.41068 25.9763 1.41069 25.9203 1.38515 25.8592C1.37511 25.7679 1.37511 25.6757 1.38515 25.5843L1.42089 25.2331C1.37958 25.41 1.35902 25.5911 1.35961 25.7727C1.35961 25.7371 1.35961 25.6963 1.33408 25.6556C1.30854 25.6149 1.33408 25.5487 1.33408 25.4927L1.30853 25.1211C1.30853 25.06 1.30853 24.9939 1.30853 24.9226V24.8208V24.7444V24.8055V24.4288L1.51793 24.2456V24.1336C1.67114 23.6755 1.51793 23.7315 1.30853 23.9656C1.33419 23.7392 1.34613 23.5114 1.34429 23.2835C1.54556 23.0554 1.67675 22.7745 1.72221 22.4741C1.80451 22.1409 1.99702 21.8451 2.26869 21.6342C2.31614 21.457 2.38472 21.2861 2.47297 21.1252C2.59044 20.891 2.78451 20.6162 2.95305 20.3566C3.12159 20.097 3.3412 19.8475 3.46377 19.6134C3.59757 19.472 3.68795 19.2953 3.72424 19.1043C3.7651 19.1043 3.89788 19.0331 3.68849 19.2265L4.03067 18.9465L4.38817 18.6869C4.61289 18.5088 4.82739 18.3255 5.03168 18.1474L5.37387 18.2084C5.52242 18.0428 5.68104 17.8864 5.84883 17.7401L6.19101 17.4296C6.28294 17.3431 6.34935 17.2922 6.34935 17.2922C7.15118 17.0987 7.4627 17.0529 6.82941 17.5314C7.12372 17.3379 7.43282 17.1677 7.75382 17.0224C7.93648 16.9285 8.12598 16.8486 8.32071 16.7831C8.48415 16.7271 8.64247 16.6712 8.83143 16.5897L9.69966 16.2792L9.64348 16.4472L10.7466 16.2181L11.6251 16.0349L11.0735 15.4546C10.8938 15.2866 10.7451 15.0885 10.6343 14.8692C9.94789 13.6953 9.3619 12.4658 8.88251 11.1939C8.5937 10.2948 8.42205 9.36244 8.37179 8.41971C8.32441 7.54368 8.4422 6.66657 8.71908 5.83381C8.43818 6.08324 8.53521 5.72182 8.76504 5.32478C8.99486 4.92773 9.3013 4.48996 9.1583 4.34234C9.24581 4.27027 9.33792 4.20395 9.43408 4.14382C9.51069 4.14382 9.5209 4.14381 9.43408 4.37288C9.51821 4.21621 9.61203 4.06491 9.71498 3.91984C9.794 3.78738 9.89016 3.66587 10.001 3.55843L10.2768 3.28355L10.4044 3.15629C10.4606 3.11047 10.527 3.06466 10.5883 3.02394L10.9407 2.76433L11.1092 2.63198L11.191 2.56581C11.1654 2.56581 11.2471 2.52509 11.1348 2.60144H11.1705C11.3799 2.47927 11.5536 2.29093 11.7783 2.13313C11.9826 2.16367 11.5434 2.40292 11.717 2.40292C11.8839 2.26866 12.0797 2.17459 12.289 2.12804C12.3758 2.12804 12.3248 2.16876 12.2379 2.22476L11.9213 2.42837C12.3741 2.25106 12.8128 2.04006 13.2338 1.79717C13.4023 1.67464 13.5174 1.49252 13.5556 1.28813C13.7752 1.28813 13.9642 1.28813 14.1327 1.28813C14.2891 1.30055 14.4462 1.30055 14.6026 1.28813C14.9003 1.27507 15.1961 1.23416 15.4861 1.16597C15.6166 1.21293 15.7389 1.27991 15.8487 1.36449C15.8487 1.36449 15.8487 1.40521 15.7313 1.40521H15.2205C15.8941 1.48194 16.5581 1.62692 17.2021 1.83789C17.6056 1.95497 17.9784 2.11277 18.2695 2.1993C18.5606 2.28584 18.7496 2.3622 18.7803 2.31129C19.0561 2.49997 19.3504 2.66029 19.6587 2.78978C20.0385 3.04547 20.4034 3.3225 20.7516 3.61951C20.8895 3.75186 21.0274 3.88421 21.1959 4.03692C21.3645 4.18963 21.5177 4.37797 21.7475 4.60703L21.5279 4.3118C21.6686 4.35459 21.7989 4.42561 21.911 4.5205C22.0276 4.63129 22.132 4.75415 22.2225 4.88701C22.3403 5.04981 22.4478 5.21982 22.5443 5.39604L22.9324 6.00688H22.8915C23.438 7.12675 23.5197 7.37618 23.6627 7.60016C23.9245 8.1247 24.0971 8.68892 24.1734 9.26979L24.3164 9.08654C24.5411 9.13744 24.6484 9.69229 24.7046 10.3948C24.7261 11.1523 24.7857 11.9084 24.8834 12.66C24.8834 12.66 24.8834 12.5276 24.914 12.4004C24.9446 12.2731 24.914 12.1357 24.914 12.1357C25.103 12.7618 24.7199 13.8358 24.5003 14.5994L24.4033 14.9303L24.9855 15.3884C25.1259 15.5009 25.2744 15.6029 25.4298 15.6938C25.5728 15.7956 25.1489 15.6276 24.9191 15.5462C26.7475 16.6559 25.2766 15.4393 26.7373 16.0552C26.9467 16.2996 26.2265 16.2028 27.2071 16.6762C27.6514 16.9969 30.1999 17.5569 31.4359 18.3611C31.1856 18.1372 30.9252 17.9183 31.6402 18.1372C32.1509 18.3459 32.8199 18.7378 33.489 19.084C34.0671 19.4198 34.6997 19.6523 35.3582 19.7712C35.4808 19.8526 35.5165 19.8984 35.5165 19.9239C36.5602 20.3013 37.6262 20.6141 38.7085 20.8605C38.9588 21.3135 40.2407 21.7106 41.4255 22.072C42.6104 22.4334 43.7136 22.7185 43.6012 22.9984L44.8525 23.4311L46.1088 23.8485L46.022 23.8842C46.9152 24.2692 47.866 24.5048 48.8361 24.5815C49.1936 24.7444 48.9025 24.7037 48.8667 24.7241C49.649 25.0525 50.4506 25.3329 51.2671 25.564C51.9997 25.7462 52.7412 25.8906 53.4887 25.9967L53.6368 26.241C54.3791 26.4415 55.1076 26.6897 55.8176 26.9842C56.9814 27.4143 58.1766 27.7547 59.3927 28.0023C59.362 28.0023 59.3058 28.043 59.1117 28.0023C61.7981 28.5113 65.3068 30.186 66.4559 29.7228L67.3496 29.85L68.2485 29.9671C65.9911 29.3817 68.652 29.7533 67.7378 29.4174C68.6367 29.5854 69.9901 30.1453 68.8869 29.9264L68.7235 29.85C68.2434 30.1147 71.5018 30.6238 71.4303 30.8325C72.0503 30.9566 72.6848 30.9926 73.3148 30.9394C73.6666 30.902 74.0108 30.8128 74.3363 30.6747C74.6562 30.5327 74.9512 30.3402 75.2096 30.1046C75.6726 29.6507 76.0452 29.1135 76.3077 28.5215C76.4354 28.2568 76.5528 28.0124 76.6703 27.7477L76.8337 27.3914C76.8886 27.2728 76.95 27.1572 77.0176 27.0453C77.5234 26.2027 78.1973 25.4725 78.9975 24.8999C79.7978 24.3272 80.7075 23.9244 81.6702 23.7162L81.1595 23.5737L81.3689 23.5126C81.5233 23.4639 81.6801 23.4231 81.8388 23.3904L82.5334 23.2581C82.7223 23.2581 82.85 23.309 82.8091 23.3599C82.5788 23.468 82.332 23.5369 82.0788 23.5635C82.6487 23.5201 83.2076 23.3843 83.7335 23.1613C84.2443 23.1613 84.423 23.2224 84.4486 23.2631C84.4741 23.3039 84.3362 23.3293 84.1626 23.3599C83.8051 23.4413 83.2943 23.5126 83.5854 23.5075C83.5854 23.5075 84.377 23.4566 84.377 23.4769L84.1983 23.4311C84.8228 23.2688 85.4787 23.2688 86.1033 23.4311C86.8183 23.6704 86.4404 23.6856 86.7059 23.7824C86.7059 23.7824 86.7825 23.8384 87.0992 23.9249L87.3392 24.0063L87.9214 24.2863L88.0798 24.3627H88.1206H88.0849L88.1462 24.4034L88.3811 24.5459L88.6109 24.6834L88.3709 24.4136L88.2023 24.2252L88.1717 24.1896C88.1717 24.1896 88.2279 24.215 88.2023 24.1896V24.1641H88.2432H88.2687C88.2687 24.1641 88.233 24.1641 88.2381 24.1641L88.3045 24.1947L88.4373 24.2609L88.6926 24.3881C88.8263 24.4533 88.9558 24.5264 89.0807 24.607C89.2646 24.719 89.3004 24.6986 89.0297 24.3576C89.2289 24.6172 89.6681 24.9735 90.1533 25.4622C90.6973 26.0007 91.1897 26.5886 91.6242 27.2183C92.3057 28.1707 92.7948 29.246 93.0644 30.3845C93.5234 31.4825 93.6854 32.6813 93.5342 33.8612C93.6108 33.5456 93.8969 33.3522 93.7334 34.5281C93.6262 34.3906 93.5291 34.4619 93.4423 34.6553C93.388 34.7749 93.3453 34.8993 93.3146 35.0269C93.3146 35.0626 93.3146 35.0982 93.2789 35.1389V35.1796C93.2789 35.1287 93.2789 35.1796 93.2789 35.1796V35.2356L93.1972 35.48C93.0258 36.1431 92.7063 36.7591 92.2626 37.282C92.5434 36.9562 92.2319 37.7095 91.8335 38.3713C91.6497 38.7072 91.4352 39.0076 91.3535 39.1857C91.2717 39.3639 91.3024 39.4046 91.5731 39.1857C91.2666 39.5777 91.2105 39.5472 91.1747 39.5013C91.139 39.4555 91.1083 39.3792 90.8274 39.6184C90.1295 40.5968 89.2485 41.4316 88.233 42.0771C87.0684 42.775 85.8323 43.3467 84.5456 43.7823L82.2627 44.5866L84.5864 45.3451L84.7907 45.4112C84.852 45.3603 84.4434 45.1058 85.0359 45.2025L85.2351 45.3298C85.2912 45.3654 85.3627 45.4061 85.4342 45.457L85.6436 45.6301L86.0267 45.9559C86.0813 46.0068 86.1325 46.0612 86.1799 46.1188C86.3594 46.2071 86.5529 46.264 86.7519 46.2868C86.9357 46.3377 87.14 46.4853 87.426 46.8925C87.3699 46.7602 87.2677 46.5515 87.5537 46.7856C88.4681 47.8279 89.1288 49.0664 89.4842 50.4049C89.5696 50.7397 89.6328 51.0798 89.6732 51.4229L89.7294 51.932V52.7057C89.7294 52.7922 89.7294 52.8788 89.7038 52.9653L89.6375 53.4743C89.6068 53.6423 89.5557 53.8103 89.5149 53.9834C89.4855 54.1483 89.4357 54.309 89.3668 54.4619L89.1931 54.9149C89.1216 55.0676 89.0093 55.2407 88.9174 55.4239L88.7743 55.6734L88.7386 55.7345C88.7845 55.6632 88.7386 55.7345 88.7386 55.7039L88.6569 55.8006L88.3351 56.2079C87.8677 56.7251 87.3192 57.1635 86.711 57.5059C86.099 57.8461 85.4424 58.0997 84.7601 58.2593C84.0778 58.4069 83.3785 58.4617 82.6815 58.4222C83.4373 58.5138 82.9419 58.5545 82.3648 58.5952C82.7427 58.5952 82.3648 58.7683 82.4363 58.8548C82.3114 58.8518 82.1867 58.8399 82.0635 58.8192C81.8388 58.7836 81.5528 58.7632 81.2514 58.697C80.9501 58.6309 80.6692 58.5749 80.4547 58.5138L80.1023 58.4018C79.6113 58.4372 79.1193 58.3478 78.6723 58.1422C78.3965 58.0251 78.1003 57.9284 77.896 57.8317C77.7549 57.7507 77.594 57.7102 77.4312 57.7146L77.7683 57.8673C77.8501 57.9029 77.9318 57.9437 77.9982 57.964L78.1105 58.0047C77.5998 57.9284 77.8245 58.2287 78.2127 58.5647C78.6008 58.9006 79.132 59.2417 79.0043 59.4097C79.7853 59.5178 80.5582 59.6776 81.3178 59.8882C82.3046 60.097 83.3311 60.0121 84.2698 59.6438C84.4996 59.6438 84.4128 59.6846 84.2698 59.7405C84.1268 59.7965 84.0144 59.8525 84.1421 59.878C84.418 59.7288 84.709 59.6093 85.0103 59.5217C85.184 59.4708 85.373 59.3893 85.5977 59.3181C85.8224 59.2468 86.0675 59.1806 86.3433 59.0635L86.2361 59.1552C87.5098 58.6087 88.6429 57.7821 89.5506 56.7372L89.7038 56.554L89.7855 56.4624L89.8213 56.4166L89.8571 56.3606V56.3351L90.1022 55.9635C90.1924 55.8338 90.276 55.6996 90.3525 55.5614L90.5976 55.0523C90.7622 54.6858 90.8955 54.3061 90.9959 53.9172C91.0485 53.7058 91.0895 53.4917 91.1185 53.2758C91.1643 53.0476 91.1916 52.8161 91.2002 52.5835L91.1032 52.721L91.0062 52.8533C91.0521 52.0439 91.1185 51.8658 91.1134 51.4789C91.0215 51.2499 90.9909 51.2855 90.9858 51.4433C90.9807 51.6011 91.0215 51.8811 90.9858 52.1763C90.9913 52.4251 90.9742 52.6738 90.9347 52.9195C90.8887 53.0875 90.8428 53.118 90.7917 52.9195C90.8652 52.7483 90.9083 52.5658 90.9194 52.3799C90.9609 52.1157 90.9729 51.8476 90.9551 51.5807C90.9458 51.261 90.9099 50.9426 90.8479 50.6288C90.7944 50.2833 90.7125 49.9428 90.6027 49.6108C90.2044 48.2822 89.4689 47.1572 89.4025 46.7398C89.3175 46.5939 89.2047 46.466 89.0706 46.3631C89.0246 46.3631 89.0348 46.3988 89.0706 46.4497C89.1063 46.5006 89.1114 46.6533 88.6926 46.1901L88.5496 45.8643L88.3862 45.7981L88.2126 45.7472C87.6303 45.1771 87.3443 44.8462 87.3699 44.7291C87.5384 44.8564 87.8806 45.0345 88.044 45.1873C87.8382 44.9667 87.6047 44.7733 87.3494 44.612C87.2132 44.5145 87.0717 44.4244 86.9255 44.3423L86.471 44.1234L86.0318 43.9249L85.6181 43.8027C85.3627 43.7212 85.1584 43.6602 85.0359 43.6143L85.0818 45.452L85.1789 45.4265L85.0818 45.452L85.0359 43.6143C85.3934 43.762 85.756 43.8943 86.0982 44.0623C85.7509 43.9299 85.3832 43.8281 85.0103 43.706L85.0563 45.3654C86.5847 44.8406 88.0321 44.1055 89.3566 43.1817C90.0119 42.7126 90.6253 42.1881 91.19 41.6138C91.7199 41.0728 92.1907 40.4773 92.5945 39.8373L92.38 39.9798L92.8039 39.3181C92.9163 39.1247 93.0184 38.9618 93.1103 38.8091C93.2942 38.524 93.4065 38.3 93.5495 38.0862C93.9791 37.4014 94.2899 36.6494 94.4689 35.8618V35.9636C94.4689 35.8261 94.5046 35.6785 94.5302 35.5258V35.4087V35.3731V35.2713C94.5302 35.1949 94.5302 35.1135 94.5302 35.0371C94.5302 34.8742 94.571 34.7113 94.5965 34.5281C94.6221 34.3448 94.6323 34.1616 94.6527 33.9732C94.6527 34.3245 94.7497 34.0089 94.8315 33.7034C94.9132 33.398 94.9438 33.1384 95 33.5965C95 33.2555 94.9642 32.9806 94.954 32.7566C94.9438 32.5327 94.8979 32.3596 94.8774 32.2221C94.857 32.0482 94.8159 31.8773 94.7549 31.7131C94.714 31.6113 94.6731 31.535 94.6016 31.3822C94.5301 31.2295 94.4535 30.9954 94.2697 30.5932L94.3207 30.1707C94.1777 29.901 94.0756 29.7686 93.9683 29.5395C93.8611 29.3105 93.7181 29.0305 93.4576 28.4146C93.7283 28.8778 93.6926 28.6742 93.6772 28.4655C93.6619 28.2568 93.6466 28.0633 93.9581 28.6029C93.6406 27.5281 93.0657 26.5463 92.283 25.7421L91.8591 25.2942C91.7212 25.1618 91.5884 25.0346 91.4658 24.9022C91.2275 24.6529 91.0153 24.38 90.8326 24.0878C90.2044 23.8129 90.6436 24.2609 91.1441 24.7139L91.7825 25.3807C91.9255 25.5589 91.9868 25.6352 91.854 25.508C91.9919 25.788 91.7825 25.6149 91.4301 25.34C91.2564 25.2026 91.0624 25.0193 90.8581 24.831C90.6538 24.6426 90.4444 24.5001 90.2912 24.3525C90.1212 24.2196 89.9639 24.0713 89.8213 23.9096L89.5915 23.6449L89.3106 23.37C89.2084 23.2733 89.0961 23.1715 88.9633 23.0646L88.9174 23.0239H88.8918L88.7846 22.9526L88.5598 22.805L88.3096 22.6574C88.2135 22.5952 88.1107 22.544 88.0031 22.5047C87.7733 22.4131 87.4924 22.3112 87.2269 22.2145C87.4567 22.296 87.4822 22.2705 87.7069 22.352C86.8693 21.9447 86.0267 22.0211 84.9848 21.7717C84.3822 21.9549 83.6059 21.7717 83.4526 22.0618H83.7744C83.9685 22.0618 84.2289 22.0211 84.4894 22.0262H85.2044C85.2827 22.0223 85.3611 22.0223 85.4394 22.0262H85.5313C84.9209 22.0164 84.3113 22.0727 83.7131 22.1942L81.4047 22.6014C81.7258 22.4155 82.0689 22.2701 82.4261 22.1687C82.1487 22.1881 81.8745 22.2393 81.609 22.3214C81.3443 22.4218 81.0707 22.4968 80.7918 22.5454C80.8224 22.3876 81.4251 22.1382 82.1963 22.0007C82.5742 21.904 82.9981 21.8888 83.4016 21.8175C83.805 21.7462 84.1983 21.736 84.5251 21.6902C84.3136 21.6578 84.0983 21.6578 83.8867 21.6902C83.6398 21.7038 83.394 21.7344 83.1513 21.7819C82.707 21.8633 82.4159 21.904 82.7172 21.7004C82.4826 21.8296 82.2342 21.932 81.9767 22.0058C81.8388 22.0415 81.6957 22.0771 81.5476 22.1026L81.088 22.2247L80.5773 22.352C80.4139 22.4131 80.2504 22.4741 80.0666 22.5454C79.7123 22.6922 79.3832 22.8932 79.0911 23.141V22.9323C78.8715 23.0595 78.4884 23.4413 78.1003 23.6806L78.1871 23.5787L78.3812 23.3497L78.6774 23.0188C78.4271 23.2428 78.1667 23.4159 77.9062 23.6093C77.6458 23.8027 77.3955 23.9758 77.135 24.1845C76.8811 24.384 76.6421 24.6018 76.42 24.8361C76.201 25.0769 76.0123 25.3436 75.8583 25.6302C76.6294 24.495 76.849 24.4848 76.8797 24.551C76.9103 24.6172 76.8133 24.8564 77.2474 24.5103L76.8899 24.9277C76.7877 25.06 76.7009 25.1873 76.6192 25.2993C76.4558 25.5233 76.3026 25.6862 76.2055 25.849C76.0259 26.0915 75.8315 26.3227 75.6233 26.5413C75.5311 26.642 75.4441 26.7473 75.3628 26.8569C75.2593 26.9909 75.1654 27.1321 75.0819 27.2794C74.8777 27.6001 74.6632 28.0786 74.3465 28.5571C74.4282 28.4298 74.6172 28.1753 74.7602 27.9768C74.9032 27.7783 75.0053 27.6917 74.9083 27.9768C74.7785 28.2146 74.617 28.4338 74.4282 28.6284C74.3057 28.7598 74.148 28.8535 73.9737 28.8982C73.949 28.9217 73.9216 28.9422 73.892 28.9592L73.8511 28.9847H73.892L73.7694 29.0509L73.7132 29.0763L73.606 29.1374C73.56 29.173 73.606 29.1832 73.6979 29.1934H73.7898C73.8358 29.1934 73.9073 29.1934 73.9431 29.1934C73.9788 29.1934 73.9992 29.2341 73.8358 29.3359C73.619 29.316 73.4007 29.3529 73.2025 29.4428C72.9069 29.5586 72.5904 29.6123 72.273 29.6006V29.4123C71.7316 29.3054 71.3946 29.2341 71.1852 29.2189C71.0624 29.2013 70.9371 29.2172 70.8225 29.2647C70.6693 29.3308 70.5519 29.397 69.4845 29.0814L70.4599 29.0356L69.3159 28.8473L69.5968 28.6895C68.6377 28.6077 67.6925 28.4076 66.7828 28.0939C67.0279 28.2873 66.5478 28.3891 65.4906 28.1397C64.796 27.8496 65.935 28.0684 64.4335 27.7172C64.9082 27.6425 65.3943 27.7304 65.8124 27.9666C65.8941 27.9208 66.175 27.931 66.2567 27.8852C65.4456 27.6178 64.6183 27.4018 63.7797 27.2387C63.9763 27.2899 64.1692 27.3545 64.3568 27.4321L63.2384 27.2794L62.125 27.1267C61.8032 26.9689 62.0892 26.9842 62.3701 27.0045C61.9258 26.9027 61.6041 26.9078 60.9555 26.75C61.1598 26.6431 61.1648 26.4802 62.0892 26.6584L59.9902 26.2664C59.8727 26.1697 58.9687 25.7981 59.2701 25.8185C58.1669 25.4113 56.4101 25.3095 54.9443 24.7393C54.7509 24.7322 54.559 24.7032 54.3723 24.6528C52.974 24.0905 51.5369 23.6295 50.072 23.2733L49.2242 22.6981C47.9117 22.3265 50.3836 23.4515 48.2028 22.8305C46.6706 22.3876 47.6921 22.4131 47.1813 22.1585C45.9561 22.0269 44.7634 21.6823 43.6574 21.1405C44.1681 21.2626 44.5154 21.4306 44.9495 21.5681ZM29.3011 15.3884C29.7018 15.4669 30.0845 15.6188 30.4298 15.8363C30.011 15.8821 29.7862 15.6734 29.3011 15.3884ZM12.4065 0.687472C12.7441 0.534877 13.114 0.46673 13.4841 0.488949C13.3258 0.519491 13.1572 0.565302 12.9734 0.590754C12.7895 0.616206 12.6056 0.646749 12.4065 0.687472ZM33.7392 30.7205H33.7035C33.0242 30.4456 33.2642 30.5474 33.7392 30.7256V30.7205ZM35.1692 31.2295C35.3224 31.2295 35.3224 31.2295 35.2663 31.1735C34.9873 31.1475 34.7136 31.0806 34.4542 30.975C34.6681 31.1177 34.9134 31.2067 35.1692 31.2346V31.2295ZM87.0328 23.7467L86.803 23.6144C87.3801 23.762 87.2115 23.7518 87.0328 23.7518V23.7467Z" fill="#3590CA"/>
</svg>
