<svg width="68" height="69" viewBox="0 0 68 69" fill="none" xmlns="http://www.w3.org/2000/svg">
<g id="Group 115">
<path id="Vector" d="M32.398 33.8987C33.8203 38.5747 38.5539 38.4295 43.7094 41.6006C51.3333 46.2085 56.0985 43.6128 56.0954 39.4944C56.0923 35.3759 50.8869 33.307 49.8226 29.1367L49.799 29.1047L49.7754 29.0726C48.5504 24.943 51.9674 20.4956 49.8469 16.9613C47.7264 13.427 42.3033 13.642 38.1376 21.5121C35.3377 26.8461 31.2265 29.1511 32.398 33.8987Z" fill="#3590CA"/>
<path id="Vector_2" d="M32.0495 46.2277C34.9096 42.6346 39.1092 41.217 41.426 43.0616C43.7428 44.9063 43.3033 49.315 40.4386 52.9115C37.5739 56.508 33.3789 57.9222 31.0621 56.0776C28.7453 54.2329 29.1848 49.8242 32.0495 46.2277Z" fill="#3590CA"/>
<path id="Vector_3" d="M25.7709 23.4911C30.0734 25.1095 34.4174 24.1855 35.4479 21.3952C36.4784 18.6049 33.8464 15.0659 29.544 13.4474C25.2415 11.8289 20.8975 12.753 19.8669 15.5433C18.8364 18.3336 21.4718 21.8772 25.7709 23.4911Z" fill="#3590CA"/>
<path id="Vector_4" d="M20.2223 38.5528C24.5975 36.4628 29.2311 37.0544 30.5784 39.8734C31.9257 42.6924 29.4701 46.6723 25.1132 48.7489C20.7563 50.8255 16.1044 50.2473 14.7571 47.4283C13.4099 44.6093 15.8652 40.6578 20.2223 38.5528Z" fill="#3590CA"/>
<path id="Vector_5" d="M19.5586 36.1271C24.387 35.6792 28.0625 32.7916 27.7716 29.6822C27.4808 26.5728 23.3379 24.4136 18.5094 24.8614C13.681 25.3092 10.0089 28.2015 10.2997 31.3109C10.5906 34.4202 14.7335 36.5795 19.5586 36.1271Z" fill="#3590CA"/>
</g>
</svg>
